# xmcd
#
# Track frame offsets:
#	150
#	30270
#	50515
#	72930
#
# Disc length: 1302 seconds
#
# Revision: 1
# Processed by: cddbd v1.5.1PL0 Copyright (c) Steve Scherf et al.
# Submitted via: CDex 1.50Beta5
#
DISCID=2b051404
DTITLE=佐藤聖子 - Marvelous Act
DYEAR=1900
DGENRE=Pop
TTITLE0=この恋がすべて
TTITLE1=もどらない二人
TTITLE2=二月最後の雪の夜
TTITLE3=地上のShooting Star
EXTD=
EXTT0=
EXTT1=
EXTT2=
EXTT3=
PLAYORDER=
